<svg width="200" height="122" viewBox="0 0 200 122" fill="none" xmlns="http://www.w3.org/2000/svg">
<path d="M100 144H0V44H100V144Z" fill="#2C6269"/>
<path fill-rule="evenodd" clip-rule="evenodd" d="M100 244C155.228 244 200 199.228 200 144C200 88.7715 155.228 44 100 44C44.7715 44 0 88.7715 0 144C0 199.228 44.7715 244 100 244ZM100 177C118.225 177 133 162.225 133 144C133 125.775 118.225 111 100 111C81.7746 111 67 125.775 67 144C67 162.225 81.7746 177 100 177Z" fill="#004047"/>
<path d="M100 100H0V104H100V100Z" fill="#79C8C7"/>
<path d="M100 108H0V112H100V108Z" fill="#79C8C7"/>
<path d="M0 116H100V120H0V116Z" fill="#79C8C7"/>
<path d="M100 124H0V128H100V124Z" fill="#79C8C7"/>
<path d="M0 132H100V136H0V132Z" fill="#79C8C7"/>
<path d="M100 140H0V144H100V140Z" fill="#79C8C7"/>
<path d="M0 0H4V4H0V0Z" fill="#79C8C7"/>
<path d="M11 0H7V4H11V0Z" fill="#79C8C7"/>
<path d="M11 8H7V12H11V8Z" fill="#79C8C7"/>
<path d="M7 16H11V20H7V16Z" fill="#79C8C7"/>
<path d="M11 24H7V28H11V24Z" fill="#79C8C7"/>
<path d="M7 32H11V36H7V32Z" fill="#79C8C7"/>
<path d="M11 40H7V44H11V40Z" fill="#79C8C7"/>
<path d="M14 0H18V4H14V0Z" fill="#79C8C7"/>
<path d="M14 8H18V12H14V8Z" fill="#79C8C7"/>
<path d="M18 16H14V20H18V16Z" fill="#79C8C7"/>
<path d="M14 24H18V28H14V24Z" fill="#79C8C7"/>
<path d="M18 32H14V36H18V32Z" fill="#79C8C7"/>
<path d="M14 40H18V44H14V40Z" fill="#79C8C7"/>
<path d="M0 8H4V12H0V8Z" fill="#79C8C7"/>
<path d="M21 0H25V4H21V0Z" fill="#79C8C7"/>
<path d="M21 8H25V12H21V8Z" fill="#79C8C7"/>
<path d="M25 16H21V20H25V16Z" fill="#79C8C7"/>
<path d="M21 24H25V28H21V24Z" fill="#79C8C7"/>
<path d="M25 32H21V36H25V32Z" fill="#79C8C7"/>
<path d="M21 40H25V44H21V40Z" fill="#79C8C7"/>
<path d="M0 16H4V20H0V16Z" fill="#79C8C7"/>
<path d="M28 0H32V4H28V0Z" fill="#79C8C7"/>
<path d="M28 8H32V12H28V8Z" fill="#79C8C7"/>
<path d="M32 16H28V20H32V16Z" fill="#79C8C7"/>
<path d="M28 24H32V28H28V24Z" fill="#79C8C7"/>
<path d="M32 32H28V36H32V32Z" fill="#79C8C7"/>
<path d="M28 40H32V44H28V40Z" fill="#79C8C7"/>
<path d="M0 24H4V28H0V24Z" fill="#79C8C7"/>
<path d="M35 0H39V4H35V0Z" fill="#79C8C7"/>
<path d="M35 8H39V12H35V8Z" fill="#79C8C7"/>
<path d="M39 16H35V20H39V16Z" fill="#79C8C7"/>
<path d="M35 24H39V28H35V24Z" fill="#79C8C7"/>
<path d="M39 32H35V36H39V32Z" fill="#79C8C7"/>
<path d="M35 40H39V44H35V40Z" fill="#79C8C7"/>
<path d="M0 32H4V36H0V32Z" fill="#79C8C7"/>
<path d="M42 0H46V4H42V0Z" fill="#79C8C7"/>
<path d="M42 8H46V12H42V8Z" fill="#79C8C7"/>
<path d="M46 16H42V20H46V16Z" fill="#79C8C7"/>
<path d="M42 24H46V28H42V24Z" fill="#79C8C7"/>
<path d="M46 32H42V36H46V32Z" fill="#79C8C7"/>
<path d="M42 40H46V44H42V40Z" fill="#79C8C7"/>
<path d="M0 40H4V44H0V40Z" fill="#79C8C7"/>
<path d="M49 0H53V4H49V0Z" fill="#79C8C7"/>
<path d="M49 8H53V12H49V8Z" fill="#79C8C7"/>
<path d="M53 16H49V20H53V16Z" fill="#79C8C7"/>
<path d="M49 24H53V28H49V24Z" fill="#79C8C7"/>
<path d="M53 32H49V36H53V32Z" fill="#79C8C7"/>
<path d="M49 40H53V44H49V40Z" fill="#79C8C7"/>
</svg>
